<?xml version="1.0" encoding="iso-8859-1"?>
<!-- Generator: Adobe Illustrator 19.0.0, SVG Export Plug-In . SVG Version: 6.00 Build 0)  -->
<svg version="1.1" id="Layer_1" xmlns="http://www.w3.org/2000/svg" xmlns:xlink="http://www.w3.org/1999/xlink" x="0px" y="0px"
	 viewBox="0 0 300.1 300.1" style="enable-background:new 0 0 300.1 300.1;" xml:space="preserve">
<g>
	<path style="fill:#FFDB77;" d="M233.77,200.85v-0.01c0.736,0.184,3.518,0.817,2.18,0.52
		C235.55,201.298,234.24,200.977,233.77,200.85z"/>
	<path style="fill:#FFDB77;" d="M198.94,155.57c0,21.72,14.78,39.98,34.83,45.28v74.2H7.5v-250h238.27v83.69
		C219.91,108.74,198.94,129.7,198.94,155.57z"/>
	<path style="fill:#28D2E4;" d="M245.77,108.74c-25.86,0-46.83,20.96-46.83,46.83c0,21.72,14.78,39.98,34.83,45.28v-0.01
		c3.716,0.928,7.295,1.56,12,1.56c4.621,0,8.174-0.604,12-1.56v0.01c20.05-5.3,34.83-23.56,34.83-45.28
		C292.6,129.7,271.64,108.74,245.77,108.74z M245.77,176.05c-11.31,0-20.48-9.17-20.48-20.48s9.17-20.48,20.48-20.48
		c11.31,0,20.48,9.17,20.48,20.48S257.08,176.05,245.77,176.05z"/>
	<path style="fill:#FFDB77;" d="M233.77,200.85v-0.01c0.736,0.184,0.875,0.237,2.156,0.515
		C238.869,201.988,235.219,201.242,233.77,200.85z"/>
	<path style="fill:#FFDB77;" d="M257.77,200.84v0.01c-1,0.255-1.893,0.474-3.28,0.74C255.715,201.358,256.805,201.081,257.77,200.84
		z"/>
	<path style="fill:#13829B;" d="M257.77,200.85v74.2h-24v-74.2c3.415,0.924,7.704,1.55,12,1.55
		C249.892,202.4,253.671,201.895,257.77,200.85z"/>
	<path style="fill:#FFDB77;" d="M235.95,201.36c-0.399-0.062-1.71-0.383-2.18-0.51v-0.01
		C234.506,201.024,237.288,201.657,235.95,201.36z"/>
	<path style="fill:#FFDB77;" d="M257.77,200.84v0.01c-1,0.255-1.893,0.474-3.28,0.74C255.715,201.358,256.805,201.081,257.77,200.84
		z"/>
	<g>
		<circle style="fill:#FFDB77;" cx="245.77" cy="155.57" r="20.48"/>
		<g>
			<path style="fill:#22313F;" d="M300.1,155.57c0-27.412-20.41-50.134-46.83-53.8V25.05c0-4.142-3.358-7.5-7.5-7.5H7.5
				c-4.142,0-7.5,3.358-7.5,7.5v250c0,4.142,3.358,7.5,7.5,7.5c10.384,0,239.907,0,250.27,0c4.142,0,7.5-3.358,7.5-7.5v-68.765
				C286.038,198.311,300.1,178.23,300.1,155.57z M226.27,267.55H15v-235h223.27v69.206c-54.399,7.54-65.222,84.123-12,104.542
				V267.55z M250.27,267.55h-9v-57.837c3.448,0.271,6.183,0.229,9,0.002V267.55z M256.188,193.508
				c-5.145,1.118-9.833,2.56-20.719,0.028c-17.121-4.631-29.029-20.224-29.029-37.966c0-21.686,17.643-39.33,39.33-39.33
				c21.686,0,39.33,17.644,39.33,39.33C285.1,173.294,273.229,188.844,256.188,193.508z"/>
			<path style="fill:#22313F;" d="M108.883,89.55h35.5c4.142,0,7.5-3.358,7.5-7.5s-3.358-7.5-7.5-7.5h-35.5
				c-4.142,0-7.5,3.358-7.5,7.5S104.741,89.55,108.883,89.55z"/>
			<path style="fill:#22313F;" d="M163.692,119.883H89.574c-4.142,0-7.5,3.358-7.5,7.5s3.358,7.5,7.5,7.5h74.118
				c4.142,0,7.5-3.358,7.5-7.5C171.192,123.241,167.834,119.883,163.692,119.883z"/>
			<path style="fill:#22313F;" d="M163.692,165.216H89.574c-4.142,0-7.5,3.358-7.5,7.5s3.358,7.5,7.5,7.5h74.118
				c4.142,0,7.5-3.358,7.5-7.5C171.192,168.574,167.834,165.216,163.692,165.216z"/>
			<path style="fill:#22313F;" d="M163.692,210.55H89.574c-4.142,0-7.5,3.358-7.5,7.5s3.358,7.5,7.5,7.5h74.118
				c4.142,0,7.5-3.358,7.5-7.5C171.192,213.908,167.834,210.55,163.692,210.55z"/>
			<path style="fill:#22313F;" d="M245.77,127.59L245.77,127.59L245.77,127.59c-15.428,0-27.98,12.552-27.98,27.98
				s12.551,27.98,27.98,27.98l0,0l0,0c15.426,0,27.98-12.549,27.98-27.98C273.75,140.144,261.201,127.59,245.77,127.59z
				 M245.77,168.55c-7.157,0-12.98-5.823-12.98-12.98c0-7.167,5.831-12.98,12.98-12.98c7.158,0,12.98,5.824,12.98,12.98
				S252.928,168.55,245.77,168.55z"/>
		</g>
	</g>
</g>
<g>
</g>
<g>
</g>
<g>
</g>
<g>
</g>
<g>
</g>
<g>
</g>
<g>
</g>
<g>
</g>
<g>
</g>
<g>
</g>
<g>
</g>
<g>
</g>
<g>
</g>
<g>
</g>
<g>
</g>
</svg>
